<?xml version="1.0" encoding="utf-8"?><svg fill="none" viewBox="0 0 1080 1080" xmlns="http://www.w3.org/2000/svg"><defs><clipPath id="cp-1080-1080"><rect height="1080" width="1080" y="0" x="0" /></clipPath><g id="comp_1"><g id="Null 2"><g transform="translate(-444.745,362.535)"><animateTransform repeatCount="indefinite" type="translate" attributeName="transform" dur="3s" begin="1.6s" calcMode="spline" values="-444.745 362.535; 1524.255 362.535" keyTimes="0; 1" keySplines="0 0 1 1" fill="freeze" /><g transform="scale(1,1) translate(-50,-50)"><g transform="matrix(1,0,0,1,68.745,197.465)" id="Layer 4"><g id="Group 1"><path fill="#58245c" fill-opacity="1" d="M-330.949,-150.192C-328.793,-157.97,-325.123,-163.438,-320.672,-166.923C-317.904,-169.092,-314.803,-170.51,-311.567,-171.254C-308.29,-172.007,-304.866,-172.067,-301.497,-171.512C-294.311,-170.329,-287.42,-166.376,-282.678,-160.383C-281.86,-159.269,-280.562,-158.522,-279.073,-158.458C-276.466,-158.346,-274.261,-160.367,-274.149,-162.975C-273.412,-178.994,-266.589,-190.488,-257.384,-196.899C-252.641,-200.203,-247.277,-202.167,-241.814,-202.707C-236.352,-203.246,-230.775,-202.378,-225.603,-200.022C-215.81,-195.559,-207.376,-185.7,-203.661,-169.855L-203.649,-169.857C-203.49,-169.171,-203.175,-168.51,-202.697,-167.929C-201.041,-165.915,-198.066,-165.625,-196.052,-167.28C-188.138,-173.79,-179.973,-176.648,-172.824,-176.302C-169.818,-176.157,-166.988,-175.433,-164.439,-174.171C-161.904,-172.916,-159.638,-171.119,-157.746,-168.819C-154.124,-164.414,-151.815,-158.137,-151.485,-150.192L-330.949,-150.192ZM-116.582,-150.153L-142.027,-150.171C-142.381,-160.47,-145.505,-168.802,-150.452,-174.817C-153.217,-178.18,-156.537,-180.809,-160.256,-182.651C-163.96,-184.485,-168.053,-185.534,-172.38,-185.743C-179.97,-186.11,-188.26,-183.867,-196.356,-178.716C-201.513,-193.875,-210.907,-203.703,-221.679,-208.612C-228.411,-211.68,-235.657,-212.81,-242.739,-212.111C-249.82,-211.412,-256.728,-208.896,-262.789,-204.674C-272.186,-198.13,-279.577,-187.504,-282.411,-173.225C-287.622,-177.178,-293.714,-179.812,-299.98,-180.844C-304.532,-181.593,-309.188,-181.504,-313.678,-180.474C-318.21,-179.433,-322.57,-177.432,-326.485,-174.364C-333.686,-168.726,-339.285,-159.551,-341.481,-146.212C-341.9,-143.636,-340.151,-141.206,-337.573,-140.788C-337.319,-140.746,-337.066,-140.725,-336.815,-140.725L-336.815,-140.714L-146.785,-140.714C-146.645,-140.714,-146.506,-140.72,-146.37,-140.732L-116.582,-140.711C-113.975,-140.711,-111.861,-142.825,-111.861,-145.432C-111.861,-148.039,-113.975,-150.153,-116.582,-150.153Z" /></g></g></g></g></g><g id="Null 2"><g transform="translate(-444.745,362.535)"><animateTransform repeatCount="indefinite" type="translate" attributeName="transform" dur="3s" begin="1.6s" calcMode="spline" values="-444.745 362.535; 1524.255 362.535" keyTimes="0; 1" keySplines="0 0 1 1" fill="freeze" /><g transform="scale(1,1) translate(-50,-50)"><g transform="matrix(1,0,0,1,68.746,197.464)" id="Layer 5"><g id="Group 1"><path fill="#58245c" fill-opacity="1" d="M-410.275,-109.668C-406.611,-119.789,-400.417,-127.064,-393.156,-131.498C-387.372,-135.028,-380.918,-136.742,-374.511,-136.644C-368.066,-136.547,-361.697,-134.636,-356.125,-130.924C-349.379,-126.432,-343.796,-119.334,-340.676,-109.668L-217.323,-109.668C-214.706,-109.668,-212.583,-107.545,-212.583,-104.928C-212.583,-102.311,-214.706,-100.189,-217.323,-100.189L-369.461,-100.189C-372.078,-100.189,-374.2,-102.311,-374.2,-104.928C-374.2,-107.545,-372.078,-109.668,-369.461,-109.668L-350.734,-109.668C-353.231,-115.67,-356.975,-120.128,-361.345,-123.038C-365.405,-125.742,-370.002,-127.134,-374.622,-127.203C-379.279,-127.273,-383.988,-126.016,-388.232,-123.426C-394.336,-119.698,-399.496,-113.176,-402.23,-103.812C-402.733,-101.733,-404.605,-100.189,-406.837,-100.189L-442.261,-100.189C-444.878,-100.189,-447,-102.311,-447,-104.928C-447,-107.545,-444.878,-109.668,-442.261,-109.668L-410.275,-109.668L-410.275,-109.668Z" /></g></g></g></g></g><g id="Null 2"><g transform="translate(-444.745,362.535)"><animateTransform repeatCount="indefinite" type="translate" attributeName="transform" dur="3s" begin="1.6s" calcMode="spline" values="-444.745 362.535; 1524.255 362.535" keyTimes="0; 1" keySplines="0 0 1 1" fill="freeze" /><g transform="scale(1,1) translate(-50,-50)"><g transform="matrix(1,0,0,1,-39.255,163.465)" id="Layer 6"><g id="Group 1"><path fill="#58245c" fill-opacity="1" d="M196.892,-105.151C197.015,-102.544,195.001,-100.331,192.393,-100.208C189.787,-100.086,187.574,-102.099,187.451,-104.706C186.842,-117.303,190.123,-127.344,195.838,-134.293C198.603,-137.655,201.924,-140.284,205.642,-142.126C209.347,-143.961,213.439,-145.009,217.766,-145.218C225.259,-145.581,233.437,-143.4,241.434,-138.387C246.226,-154.578,257.103,-165.852,269.585,-171.304C276.038,-174.122,282.926,-175.388,289.642,-174.979C296.442,-174.565,303.073,-172.437,308.925,-168.475C318.722,-161.843,326.212,-150.131,328.355,-132.806C333.73,-136.491,340.239,-139.008,347.077,-140.134C353.068,-141.121,359.347,-141.055,365.358,-139.78C371.453,-138.488,377.299,-135.948,382.336,-132.002C389.668,-126.26,395.192,-117.64,397.161,-105.688C397.58,-103.111,395.831,-100.682,393.255,-100.264C393,-100.222,392.745,-100.202,392.495,-100.202L392.495,-100.19L237.573,-100.19C234.956,-100.19,232.833,-102.311,232.833,-104.928C232.833,-107.545,234.956,-109.668,237.573,-109.668L386.534,-109.668C384.479,-116.217,380.924,-121.115,376.524,-124.561C372.69,-127.564,368.165,-129.513,363.396,-130.523C358.542,-131.553,353.458,-131.604,348.595,-130.804C340.163,-129.415,332.49,-125.51,327.977,-119.747L327.975,-119.747C327.112,-118.642,325.766,-117.934,324.255,-117.934C321.648,-117.934,319.535,-120.046,319.535,-122.653C319.467,-142.073,312.831,-154.436,303.631,-160.664C299.252,-163.63,294.247,-165.223,289.087,-165.537C283.842,-165.857,278.443,-164.859,273.362,-162.64C261.799,-157.591,251.908,-146.228,249.102,-129.626L249.095,-129.628C248.964,-128.836,248.63,-128.068,248.084,-127.405C246.428,-125.391,243.452,-125.101,241.438,-126.756C233.524,-133.265,225.36,-136.122,218.211,-135.777C215.206,-135.632,212.375,-134.909,209.826,-133.647C207.291,-132.392,205.024,-130.595,203.132,-128.295C198.849,-123.086,196.403,-115.258,196.892,-105.151L196.892,-105.151Z" /></g></g></g></g></g><g id="Null 2"><g transform="translate(-444.745,362.535)"><animateTransform repeatCount="indefinite" type="translate" attributeName="transform" dur="3s" begin="1.6s" calcMode="spline" values="-444.745 362.535; 1524.255 362.535" keyTimes="0; 1" keySplines="0 0 1 1" fill="freeze" /><g transform="scale(1,1) translate(-50,-50)"><g transform="matrix(1,0,0,1,122.247,-82.535)" id="Layer 1"><g id="Group 8"><path fill="#ffffff" fill-opacity="1" d="M159.341,238.717C157.776,206.366,185.213,194.563,209.293,214.369C217.593,165.272,285.359,159.259,285.578,221.776C300.477,202.753,344.775,202.143,350.798,238.717L159.341,238.717L159.341,238.717Z" /></g><g id="Group 7"><path fill="#ffffff" fill-opacity="1" d="M137.34,238.717L86.408,238.717C94.874,209.277,130.248,209.576,137.34,238.717L137.34,238.717Z" /></g><g id="Group 6"><path fill="#58245c" fill-opacity="1" d="M163.854,238.504C163.971,240.996,162.045,243.112,159.554,243.229C157.062,243.347,154.946,241.42,154.829,238.929C154.247,226.89,157.384,217.294,162.846,210.653C165.49,207.44,168.661,204.927,172.216,203.167C175.756,201.413,179.668,200.411,183.804,200.21C190.965,199.863,198.78,201.95,206.424,206.739C211.003,191.266,221.398,180.49,233.327,175.28C239.495,172.585,246.078,171.376,252.497,171.768C258.995,172.164,265.334,174.197,270.927,177.983C280.29,184.321,287.449,195.515,289.497,212.073C294.634,208.552,300.855,206.145,307.39,205.069C313.116,204.126,319.117,204.19,324.861,205.408C330.687,206.644,336.274,209.071,341.09,212.842C348.096,218.33,353.376,226.57,355.257,237.992C355.657,240.455,353.986,242.776,351.524,243.176C351.28,243.216,351.037,243.235,350.798,243.235L350.798,243.246L202.733,243.246C200.231,243.246,198.203,241.218,198.203,238.717C198.203,236.214,200.231,234.187,202.733,234.187L345.1,234.187C343.136,227.929,339.739,223.248,335.533,219.954C331.868,217.083,327.544,215.221,322.986,214.255C318.347,213.271,313.488,213.221,308.841,213.987C300.781,215.314,293.449,219.047,289.135,224.554L289.133,224.554C288.308,225.611,287.022,226.288,285.578,226.288C283.086,226.288,281.067,224.267,281.067,221.776C281.002,203.215,274.659,191.401,265.867,185.448C261.682,182.615,256.898,181.092,251.966,180.792C246.954,180.486,241.793,181.439,236.937,183.56C225.886,188.387,216.434,199.246,213.752,215.112L213.745,215.111C213.619,215.867,213.3,216.601,212.779,217.235C211.196,219.161,208.352,219.438,206.427,217.855C198.864,211.634,191.06,208.904,184.228,209.234C181.356,209.373,178.65,210.063,176.214,211.27C173.792,212.47,171.625,214.187,169.817,216.386C165.723,221.363,163.386,228.845,163.854,238.504L163.854,238.504Z" /></g><g id="Group 5"><path fill="#58245c" fill-opacity="1" d="M374.446,243.356C371.955,243.356,369.934,241.336,369.934,238.845C369.934,236.354,371.955,234.332,374.446,234.332L398.07,234.353C400.562,234.353,402.582,236.373,402.582,238.865C402.582,241.357,400.562,243.376,398.07,243.376L374.446,243.356L374.446,243.356Z" /></g><g id="Group 4"><path fill="#58245c" fill-opacity="1" d="M90.76,239.955C90.159,242.067,88.154,243.4,86.046,243.229L25.303,243.208C22.811,243.208,20.79,241.189,20.79,238.697C20.79,236.206,22.811,234.185,25.303,234.185L83.135,234.204C86.191,226.039,91.259,220.146,97.189,216.526C102.005,213.585,107.381,212.16,112.719,212.24C118.092,212.321,123.399,213.912,128.041,217.004C134.328,221.191,139.4,228.091,141.727,237.655C142.313,240.079,140.825,242.52,138.401,243.105C135.978,243.691,133.537,242.202,132.951,239.778C131.208,232.613,127.546,227.535,123.051,224.542C119.856,222.413,116.241,221.318,112.612,221.264C108.949,221.208,105.24,222.199,101.896,224.24C97.033,227.208,92.923,232.432,90.76,239.955L90.76,239.955Z" /></g><g id="Group 3"><path fill="#58245c" fill-opacity="1" d="M-52.903,234.187C-50.401,234.187,-48.373,236.215,-48.373,238.717C-48.373,241.218,-50.401,243.246,-52.903,243.246L-218.822,243.246C-221.323,243.246,-223.352,241.218,-223.352,238.717C-223.352,236.215,-221.323,234.187,-218.822,234.187L-52.903,234.187L-52.903,234.187Z" /></g><g id="Group 2"><path fill="#58245c" fill-opacity="1" d="M-239.708,234.187C-237.207,234.187,-235.178,236.215,-235.178,238.717C-235.178,241.218,-237.207,243.246,-239.708,243.246L-263.332,243.246C-265.834,243.246,-267.861,241.218,-267.861,238.717C-267.861,236.215,-265.834,234.187,-263.332,234.187L-239.708,234.187L-239.708,234.187Z" /></g></g></g></g></g><g opacity="0" id="Null 2"><g transform="translate(-444.745,362.535)"><animateTransform repeatCount="indefinite" type="translate" attributeName="transform" dur="3s" begin="1.6s" calcMode="spline" values="-444.745 362.535; 1524.255 362.535" keyTimes="0; 1" keySplines="0 0 1 1" fill="freeze" /><g transform="scale(1,1) translate(-50,-50)" /></g></g></g><g id="comp_2"><g id="Null 2"><g transform="translate(517.877,362.535)"><animateTransform repeatCount="indefinite" type="translate" attributeName="transform" dur="3s" begin="1.6s" calcMode="spline" values="517.877 362.535; 1524.255 362.535" keyTimes="0; 1" keySplines="0 0 1 1" fill="freeze" /><g transform="scale(1,1) translate(-50,-50)"><g transform="matrix(1,0,0,1,68.745,197.465)" id="Layer 4"><g id="Group 1"><path fill="#58245c" fill-opacity="1" d="M-330.949,-150.192C-328.793,-157.97,-325.123,-163.438,-320.672,-166.923C-317.904,-169.092,-314.803,-170.51,-311.567,-171.254C-308.29,-172.007,-304.866,-172.067,-301.497,-171.512C-294.311,-170.329,-287.42,-166.376,-282.678,-160.383C-281.86,-159.269,-280.562,-158.522,-279.073,-158.458C-276.466,-158.346,-274.261,-160.367,-274.149,-162.975C-273.412,-178.994,-266.589,-190.488,-257.384,-196.899C-252.641,-200.203,-247.277,-202.167,-241.814,-202.707C-236.352,-203.246,-230.775,-202.378,-225.603,-200.022C-215.81,-195.559,-207.376,-185.7,-203.661,-169.855L-203.649,-169.857C-203.49,-169.171,-203.175,-168.51,-202.697,-167.929C-201.041,-165.915,-198.066,-165.625,-196.052,-167.28C-188.138,-173.79,-179.973,-176.648,-172.824,-176.302C-169.818,-176.157,-166.988,-175.433,-164.439,-174.171C-161.904,-172.916,-159.638,-171.119,-157.746,-168.819C-154.124,-164.414,-151.815,-158.137,-151.485,-150.192L-330.949,-150.192ZM-116.582,-150.153L-142.027,-150.171C-142.381,-160.47,-145.505,-168.802,-150.452,-174.817C-153.217,-178.18,-156.537,-180.809,-160.256,-182.651C-163.96,-184.485,-168.053,-185.534,-172.38,-185.743C-179.97,-186.11,-188.26,-183.867,-196.356,-178.716C-201.513,-193.875,-210.907,-203.703,-221.679,-208.612C-228.411,-211.68,-235.657,-212.81,-242.739,-212.111C-249.82,-211.412,-256.728,-208.896,-262.789,-204.674C-272.186,-198.13,-279.577,-187.504,-282.411,-173.225C-287.622,-177.178,-293.714,-179.812,-299.98,-180.844C-304.532,-181.593,-309.188,-181.504,-313.678,-180.474C-318.21,-179.433,-322.57,-177.432,-326.485,-174.364C-333.686,-168.726,-339.285,-159.551,-341.481,-146.212C-341.9,-143.636,-340.151,-141.206,-337.573,-140.788C-337.319,-140.746,-337.066,-140.725,-336.815,-140.725L-336.815,-140.714L-146.785,-140.714C-146.645,-140.714,-146.506,-140.72,-146.37,-140.732L-116.582,-140.711C-113.975,-140.711,-111.861,-142.825,-111.861,-145.432C-111.861,-148.039,-113.975,-150.153,-116.582,-150.153Z" /></g></g></g></g></g><g id="Null 2"><g transform="translate(517.877,362.535)"><animateTransform repeatCount="indefinite" type="translate" attributeName="transform" dur="3s" begin="1.6s" calcMode="spline" values="517.877 362.535; 1524.255 362.535" keyTimes="0; 1" keySplines="0 0 1 1" fill="freeze" /><g transform="scale(1,1) translate(-50,-50)"><g transform="matrix(1,0,0,1,68.746,197.464)" id="Layer 5"><g id="Group 1"><path fill="#58245c" fill-opacity="1" d="M-410.275,-109.668C-406.611,-119.789,-400.417,-127.064,-393.156,-131.498C-387.372,-135.028,-380.918,-136.742,-374.511,-136.644C-368.066,-136.547,-361.697,-134.636,-356.125,-130.924C-349.379,-126.432,-343.796,-119.334,-340.676,-109.668L-217.323,-109.668C-214.706,-109.668,-212.583,-107.545,-212.583,-104.928C-212.583,-102.311,-214.706,-100.189,-217.323,-100.189L-369.461,-100.189C-372.078,-100.189,-374.2,-102.311,-374.2,-104.928C-374.2,-107.545,-372.078,-109.668,-369.461,-109.668L-350.734,-109.668C-353.231,-115.67,-356.975,-120.128,-361.345,-123.038C-365.405,-125.742,-370.002,-127.134,-374.622,-127.203C-379.279,-127.273,-383.988,-126.016,-388.232,-123.426C-394.336,-119.698,-399.496,-113.176,-402.23,-103.812C-402.733,-101.733,-404.605,-100.189,-406.837,-100.189L-442.261,-100.189C-444.878,-100.189,-447,-102.311,-447,-104.928C-447,-107.545,-444.878,-109.668,-442.261,-109.668L-410.275,-109.668L-410.275,-109.668Z" /></g></g></g></g></g><g id="Null 2"><g transform="translate(517.877,362.535)"><animateTransform repeatCount="indefinite" type="translate" attributeName="transform" dur="3s" begin="1.6s" calcMode="spline" values="517.877 362.535; 1524.255 362.535" keyTimes="0; 1" keySplines="0 0 1 1" fill="freeze" /><g transform="scale(1,1) translate(-50,-50)"><g transform="matrix(1,0,0,1,68.745,197.465)" id="Layer 6"><g id="Group 1"><path fill="#58245c" fill-opacity="1" d="M196.892,-105.151C197.015,-102.544,195.001,-100.331,192.393,-100.208C189.787,-100.086,187.574,-102.099,187.451,-104.706C186.842,-117.303,190.123,-127.344,195.838,-134.293C198.603,-137.655,201.924,-140.284,205.642,-142.126C209.347,-143.961,213.439,-145.009,217.766,-145.218C225.259,-145.581,233.437,-143.4,241.434,-138.387C246.226,-154.578,257.103,-165.852,269.585,-171.304C276.038,-174.122,282.926,-175.388,289.642,-174.979C296.442,-174.565,303.073,-172.437,308.925,-168.475C318.722,-161.843,326.212,-150.131,328.355,-132.806C333.73,-136.491,340.239,-139.008,347.077,-140.134C353.068,-141.121,359.347,-141.055,365.358,-139.78C371.453,-138.488,377.299,-135.948,382.336,-132.002C389.668,-126.26,395.192,-117.64,397.161,-105.688C397.58,-103.111,395.831,-100.682,393.255,-100.264C393,-100.222,392.745,-100.202,392.495,-100.202L392.495,-100.19L237.573,-100.19C234.956,-100.19,232.833,-102.311,232.833,-104.928C232.833,-107.545,234.956,-109.668,237.573,-109.668L386.534,-109.668C384.479,-116.217,380.924,-121.115,376.524,-124.561C372.69,-127.564,368.165,-129.513,363.396,-130.523C358.542,-131.553,353.458,-131.604,348.595,-130.804C340.163,-129.415,332.49,-125.51,327.977,-119.747L327.975,-119.747C327.112,-118.642,325.766,-117.934,324.255,-117.934C321.648,-117.934,319.535,-120.046,319.535,-122.653C319.467,-142.073,312.831,-154.436,303.631,-160.664C299.252,-163.63,294.247,-165.223,289.087,-165.537C283.842,-165.857,278.443,-164.859,273.362,-162.64C261.799,-157.591,251.908,-146.228,249.102,-129.626L249.095,-129.628C248.964,-128.836,248.63,-128.068,248.084,-127.405C246.428,-125.391,243.452,-125.101,241.438,-126.756C233.524,-133.265,225.36,-136.122,218.211,-135.777C215.206,-135.632,212.375,-134.909,209.826,-133.647C207.291,-132.392,205.024,-130.595,203.132,-128.295C198.849,-123.086,196.403,-115.258,196.892,-105.151L196.892,-105.151Z" /></g></g></g></g></g><g opacity="0" id="Null 2"><g transform="translate(517.877,362.535)"><animateTransform repeatCount="indefinite" type="translate" attributeName="transform" dur="3s" begin="1.6s" calcMode="spline" values="517.877 362.535; 1524.255 362.535" keyTimes="0; 1" keySplines="0 0 1 1" fill="freeze" /><g transform="scale(1,1) translate(-50,-50)" /></g></g></g><g id="comp_0"><g transform="matrix(1,0,0,1,343,590)" visibility="hidden" id="Shape Layer 9"><animate repeatCount="indefinite" begin="1.7s" calcMode="discrete" fill="freeze" dur="0.333s" values="visible; hidden" keyTimes="0; 1" attributeName="visibility" /><g id="Shape 1"><path stroke-linejoin="miter" stroke-linecap="round" stroke-width="10" stroke-opacity="1" stroke="#553c73" d="M160,4L161,124" /></g></g><g transform="matrix(1,0,0,1,432,530)" visibility="hidden" id="Shape Layer 10"><animate repeatCount="indefinite" begin="2s" calcMode="discrete" fill="freeze" dur="0.333s" values="visible; hidden" keyTimes="0; 1" attributeName="visibility" /><g id="Shape 1"><path stroke-linejoin="miter" stroke-linecap="round" stroke-width="10" stroke-opacity="1" stroke="#553c73" d="M160,4L161,124" /></g></g><g transform="matrix(1,0,0,1,467,572)" visibility="hidden" id="Shape Layer 11"><animate repeatCount="indefinite" begin="2.367s" calcMode="discrete" fill="freeze" dur="0.333s" values="visible; hidden" keyTimes="0; 1" attributeName="visibility" /><g id="Shape 1"><path stroke-linejoin="miter" stroke-linecap="round" stroke-width="10" stroke-opacity="1" stroke="#553c73" d="M160,4L161,124" /></g></g><g transform="matrix(1,0,0,1,451,568)" visibility="hidden" id="Shape Layer 12"><animate repeatCount="indefinite" begin="1.8s" calcMode="discrete" fill="freeze" dur="0.333s" values="visible; hidden" keyTimes="0; 1" attributeName="visibility" /><g id="Shape 1"><path stroke-linejoin="miter" stroke-linecap="round" stroke-width="10" stroke-opacity="1" stroke="#553c73" d="M160,4L161,124" /></g></g><g transform="matrix(1,0,0,1,393,564)" visibility="hidden" id="Shape Layer 13"><animate repeatCount="indefinite" begin="2.233s" calcMode="discrete" fill="freeze" dur="0.333s" values="visible; hidden" keyTimes="0; 1" attributeName="visibility" /><g id="Shape 1"><path stroke-linejoin="miter" stroke-linecap="round" stroke-width="10" stroke-opacity="1" stroke="#553c73" d="M160,4L161,124" /></g></g><g transform="matrix(1,0,0,1,329,532)" visibility="hidden" id="Shape Layer 14"><animate repeatCount="indefinite" begin="2.4s" calcMode="discrete" fill="freeze" dur="0.333s" values="visible; hidden" keyTimes="0; 1" attributeName="visibility" /><g id="Shape 1"><path stroke-linejoin="miter" stroke-linecap="round" stroke-width="10" stroke-opacity="1" stroke="#553c73" d="M160,4L161,124" /></g></g><g transform="matrix(1,0,0,1,427,572)" visibility="hidden" id="Shape Layer 15"><animate repeatCount="indefinite" begin="2.767s" calcMode="discrete" fill="freeze" dur="0.333s" values="visible; visible" keyTimes="0; 1" attributeName="visibility" /><g id="Shape 1"><path stroke-linejoin="miter" stroke-linecap="round" stroke-width="10" stroke-opacity="1" stroke="#553c73" d="M160,4L161,124" /></g></g><g transform="matrix(1,0,0,1,416,526)" id="Shape Layer 16"><animate repeatCount="indefinite" begin="1.6s" calcMode="discrete" fill="freeze" dur="0.333s" values="visible; hidden" keyTimes="0; 1" attributeName="visibility" /><g id="Shape 1"><path stroke-linejoin="miter" stroke-linecap="round" stroke-width="10" stroke-opacity="1" stroke="#553c73" d="M160,4L161,124" /></g></g><g transform="matrix(1,0,0,1,451,568)" visibility="hidden" id="Shape Layer 17"><animate repeatCount="indefinite" begin="1.933s" calcMode="discrete" fill="freeze" dur="0.333s" values="visible; hidden" keyTimes="0; 1" attributeName="visibility" /><g id="Shape 1"><path stroke-linejoin="miter" stroke-linecap="round" stroke-width="10" stroke-opacity="1" stroke="#553c73" d="M160,4L161,124" /></g></g><g transform="matrix(1,0,0,1,354,535)" visibility="hidden" id="Shape Layer 18"><animate repeatCount="indefinite" begin="2.6s" calcMode="discrete" fill="freeze" dur="0.333s" values="visible; hidden" keyTimes="0; 1" attributeName="visibility" /><g id="Shape 1"><path stroke-linejoin="miter" stroke-linecap="round" stroke-width="10" stroke-opacity="1" stroke="#553c73" d="M160,4L161,124" /></g></g><g transform="matrix(1,0,0,1,296,556)" visibility="hidden" id="Shape Layer 19"><animate repeatCount="indefinite" begin="2.267s" calcMode="discrete" fill="freeze" dur="0.333s" values="visible; hidden" keyTimes="0; 1" attributeName="visibility" /><g id="Shape 1"><path stroke-linejoin="miter" stroke-linecap="round" stroke-width="10" stroke-opacity="1" stroke="#553c73" d="M160,4L161,124" /></g></g><g transform="matrix(1,0,0,1,313,528)" visibility="hidden" id="Shape Layer 20"><animate repeatCount="indefinite" begin="1.733s" calcMode="discrete" fill="freeze" dur="0.333s" values="visible; hidden" keyTimes="0; 1" attributeName="visibility" /><g id="Shape 1"><path stroke-linejoin="miter" stroke-linecap="round" stroke-width="10" stroke-opacity="1" stroke="#553c73" d="M160,4L161,124" /></g></g></g></defs><g visibility="hidden" id="cloud 2"><animate repeatCount="indefinite" begin="6s" calcMode="discrete" fill="freeze" dur="1.6s" values="visible; visible" keyTimes="0; 1" attributeName="visibility" /><g transform="translate(540,116)"><animateTransform repeatCount="indefinite" type="translate" attributeName="transform" dur="3s" begin="6s" calcMode="spline" values="540 116; 540 1332" keyTimes="0; 1" keySplines="0 0 1 1" fill="freeze" /><g transform="scale(1,1) translate(-540,-540)"><use clip-path="url(#cp-1080-1080)" height="1080" width="1080" y="0" x="0" xlink:href="#comp_1" href="#comp_1" /></g></g></g><g id="cloud 2"><animate repeatCount="indefinite" begin="1.6s" calcMode="discrete" fill="freeze" dur="1.4s" values="visible; hidden" keyTimes="0; 1" attributeName="visibility" /><g transform="translate(540,764.533)"><animateTransform repeatCount="indefinite" type="translate" attributeName="transform" dur="3s" begin="0s" calcMode="spline" values="540 116; 540 1332" keyTimes="0; 1" keySplines="0 0 1 1" fill="freeze" /><g transform="scale(1,1) translate(-540,-540)"><use clip-path="url(#cp-1080-1080)" height="1080" width="1080" y="0" x="0" xlink:href="#comp_1" href="#comp_1" /></g></g></g><g visibility="hidden" id="cloud 1"><animate repeatCount="indefinite" begin="1.967s" calcMode="discrete" fill="freeze" dur="3s" values="visible; hidden" keyTimes="0; 1" attributeName="visibility" /><g transform="translate(540,116)"><animateTransform repeatCount="indefinite" type="translate" attributeName="transform" dur="3s" begin="1.967s" calcMode="spline" values="540 116; 540 1332" keyTimes="0; 1" keySplines="0 0 1 1" fill="freeze" /><g transform="scale(1,1) translate(-540,-540)"><use clip-path="url(#cp-1080-1080)" height="1080" width="1080" y="0" x="0" xlink:href="#comp_2" href="#comp_2" /></g></g></g><g visibility="hidden" id="cloud 2"><animate repeatCount="indefinite" begin="3.9s" calcMode="discrete" fill="freeze" dur="3s" values="visible; hidden" keyTimes="0; 1" attributeName="visibility" /><g transform="translate(540,416)"><animateTransform repeatCount="indefinite" type="translate" attributeName="transform" dur="3s" begin="3.9s" calcMode="spline" values="540 416; 540 1332" keyTimes="0; 1" keySplines="0 0 1 1" fill="freeze" /><g transform="scale(1,1) translate(-540,-540)"><use clip-path="url(#cp-1080-1080)" height="1080" width="1080" y="0" x="0" xlink:href="#comp_1" href="#comp_1" /></g></g></g><g id="Layer 7"><g transform="translate(310.46,486.206)"><g transform="scale(0,0)"><animateTransform repeatCount="indefinite" type="scale" attributeName="transform" dur="4.733s" begin="1.6s" calcMode="spline" values="0 0; 1 1; 0 0; 0 0; 1 1; 0 0" keyTimes="0; 0.07; 0.141; 0.859; 0.93; 1" keySplines="0.233 0 0.535 0.962; 0.508 0 0.762 1; 0 0 1 1; 0.233 0 0.535 0.962; 0.508 0 0.762 1" fill="freeze" /><g transform="translate(225.54,267.794)"><g id="Group 1"><path fill="#58245c" fill-opacity="1" d="M-218.93,-272.534C-216.313,-272.534,-214.191,-270.411,-214.191,-267.794C-214.191,-265.177,-216.313,-263.055,-218.93,-263.055L-220.8,-263.055L-220.8,-261.184C-220.8,-258.567,-222.923,-256.445,-225.54,-256.445C-228.157,-256.445,-230.279,-258.567,-230.279,-261.184L-230.279,-263.055L-232.149,-263.055C-234.766,-263.055,-236.888,-265.177,-236.888,-267.794C-236.888,-270.411,-234.766,-272.534,-232.149,-272.534L-230.279,-272.534L-230.279,-274.403C-230.279,-277.02,-228.157,-279.142,-225.54,-279.142C-222.923,-279.142,-220.8,-277.02,-220.8,-274.403L-220.8,-272.534L-218.93,-272.534L-218.93,-272.534Z" /></g></g></g></g></g><g id="Layer 8"><g transform="translate(856.416,456.692)"><g transform="scale(0,0)"><animateTransform repeatCount="indefinite" type="scale" attributeName="transform" dur="3.267s" begin="2.4s" calcMode="spline" values="0 0; 1 1; 0 0; 0 0; 1 1; 0 0" keyTimes="0; 0.102; 0.204; 0.796; 0.898; 1" keySplines="0.233 0 0.535 0.962; 0.508 0 0.762 1; 0 0 1 1; 0.233 0 0.535 0.962; 0.508 0 0.762 1" fill="freeze" /><g transform="translate(-154.416,285.308)"><g id="Group 1"><path fill="#58245c" fill-opacity="1" d="M149.677,-291.918C149.677,-294.535,151.8,-296.657,154.417,-296.657C157.034,-296.657,159.155,-294.535,159.155,-291.918L159.155,-290.048L161.026,-290.048C163.643,-290.048,165.764,-287.925,165.764,-285.308C165.764,-282.691,163.643,-280.569,161.026,-280.569L159.155,-280.569L159.155,-278.699C159.155,-276.081,157.034,-273.959,154.417,-273.959C151.8,-273.959,149.677,-276.081,149.677,-278.699L149.677,-280.569L147.807,-280.569C145.19,-280.569,143.068,-282.691,143.068,-285.308C143.068,-287.925,145.19,-290.048,147.807,-290.048L149.677,-290.048L149.677,-291.918L149.677,-291.918Z" /></g></g></g></g></g><g id="Layer 9"><g transform="translate(767.846,517.395)"><g transform="scale(0,0)"><animateTransform repeatCount="indefinite" type="scale" attributeName="transform" dur="3.133s" begin="4.367s" calcMode="spline" values="0 0; 1 1; 0 0; 0 0; 1 1; 0 0" keyTimes="0; 0.106; 0.213; 0.787; 0.894; 1" keySplines="0.233 0 0.535 0.962; 0.508 0 0.762 1; 0 0 1 1; 0.233 0 0.535 0.962; 0.508 0 0.762 1" fill="freeze" /><g transform="translate(-231.846,236.605)"><g id="Group 1"><path fill="#58245c" fill-opacity="1" d="M227.106,-243.214C227.106,-245.832,229.229,-247.954,231.846,-247.954C234.463,-247.954,236.585,-245.832,236.585,-243.214L236.585,-241.344L238.456,-241.344C241.073,-241.344,243.195,-239.222,243.195,-236.605C243.195,-233.988,241.073,-231.865,238.456,-231.865L236.585,-231.865L236.585,-229.996C236.585,-227.378,234.463,-225.256,231.846,-225.256C229.229,-225.256,227.106,-227.378,227.106,-229.996L227.106,-231.865L225.237,-231.865C222.62,-231.865,220.498,-233.988,220.498,-236.605C220.498,-239.222,222.62,-241.344,225.237,-241.344L227.106,-241.344L227.106,-243.214L227.106,-243.214Z" /></g></g></g></g></g><g id="Layer 10"><g transform="translate(713.315,529.395)"><g transform="scale(0,0)"><animateTransform repeatCount="indefinite" type="scale" attributeName="transform" dur="3.533s" begin="3.133s" calcMode="spline" values="0 0; 1 1; 0 0; 0 0; 1 1; 0 0" keyTimes="0; 0.094; 0.189; 0.811; 0.906; 1" keySplines="0.233 0 0.535 0.962; 0.508 0 0.762 1; 0 0 1 1; 0.233 0 0.535 0.962; 0.508 0 0.762 1" fill="freeze" /><g transform="translate(-125.315,236.605)"><g id="Group 1"><path fill="#58245c" fill-opacity="1" d="M120.575,-243.214C120.575,-245.832,122.697,-247.953,125.314,-247.953C127.931,-247.953,130.054,-245.832,130.054,-243.214L130.054,-241.344L131.924,-241.344C134.541,-241.344,136.663,-239.222,136.663,-236.605C136.663,-233.988,134.541,-231.865,131.924,-231.865L130.054,-231.865L130.054,-229.996C130.054,-227.378,127.931,-225.256,125.314,-225.256C122.697,-225.256,120.575,-227.378,120.575,-229.996L120.575,-231.865L118.705,-231.865C116.088,-231.865,113.966,-233.988,113.966,-236.605C113.966,-239.222,116.088,-241.344,118.705,-241.344L120.575,-241.344L120.575,-243.214L120.575,-243.214Z" /></g></g></g></g></g><g id="Layer 11"><g transform="translate(265.281,551.395)"><g transform="scale(0,0)"><animateTransform repeatCount="indefinite" type="scale" attributeName="transform" dur="2.167s" begin="2.3s" calcMode="spline" values="0 0; 1 1; 0 0; 0 0; 1 1; 0 0" keyTimes="0; 0.154; 0.308; 0.692; 0.846; 1" keySplines="0.233 0 0.535 0.962; 0.508 0 0.762 1; 0 0 1 1; 0.233 0 0.535 0.962; 0.508 0 0.762 1" fill="freeze" /><g transform="translate(154.719,236.605)"><g id="Group 1"><path fill="#58245c" fill-opacity="1" d="M-159.458,-243.214C-159.458,-245.832,-157.336,-247.954,-154.719,-247.954C-152.102,-247.954,-149.981,-245.832,-149.981,-243.214L-149.981,-241.344L-148.109,-241.344C-145.492,-241.344,-143.371,-239.222,-143.371,-236.605C-143.371,-233.988,-145.492,-231.865,-148.109,-231.865L-149.981,-231.865L-149.981,-229.996C-149.981,-227.378,-152.102,-225.256,-154.719,-225.256C-157.336,-225.256,-159.458,-227.378,-159.458,-229.996L-159.458,-231.865L-161.328,-231.865C-163.945,-231.865,-166.068,-233.988,-166.068,-236.605C-166.068,-239.222,-163.945,-241.344,-161.328,-241.344L-159.458,-241.344L-159.458,-243.214L-159.458,-243.214Z" /></g></g></g></g></g><g id="rocket"><g transform="translate(494.245,427.115)"><animateTransform repeatCount="indefinite" type="translate" attributeName="transform" dur="6s" begin="1.6s" calcMode="spline" values="494.245 427.115; 576.245 427.115; 494.245 427.115; 576.245 427.115; 494.245 427.115; 576.245 427.115; 494.245 427.115" keyTimes="0; 0.167; 0.333; 0.5; 0.667; 0.833; 1" keySplines="0.333 0 0.667 1; 0.167 0 0.667 1; 0.333 0 0.667 1; 0.167 0 0.667 1; 0.333 0 0.667 1; 0.167 0 0.667 1" fill="freeze" /><g transform="scale(1,1) translate(-0.245,146.885)"><g transform="matrix(1,0,0,1,0,0)" id="fire"><g id="Group 4"><path fill="#f0c473" fill-opacity="1" d="M-0.151,126.896C-24.769,110.465,-47.746,71.133,-47.746,39.676C-47.746,22.526,-41.411,7.146,-31.391,-3.296L-0.151,-3.296L-0.151,126.896L-0.151,126.896Z" /></g><g id="Group 3"><path fill="#db7e1c" fill-opacity="1" d="M-0.151,126.896C24.468,110.465,47.442,71.133,47.442,39.676C47.442,22.526,41.108,7.146,31.089,-3.296L-0.151,-3.296L-0.151,126.896L-0.151,126.896Z" /></g><g id="Group 2"><path fill="#ffffff" fill-opacity="1" d="M-0.151,84.069C-17.599,72.423,-33.883,44.548,-33.883,22.254C-33.883,12.559,-31.026,3.662,-26.266,-3.296L-0.151,-3.296L-0.151,84.069L-0.151,84.069Z" /></g><g id="Group 1"><path fill="#f0c473" fill-opacity="1" d="M-0.151,84.069C17.298,72.423,33.581,44.548,33.581,22.254C33.581,12.559,30.724,3.662,25.964,-3.296L-0.151,-3.296L-0.151,84.069L-0.151,84.069Z" /></g></g></g></g></g><g id="rocket"><g transform="translate(494.245,427.115)"><animateTransform repeatCount="indefinite" type="translate" attributeName="transform" dur="6s" begin="1.6s" calcMode="spline" values="494.245 427.115; 576.245 427.115; 494.245 427.115; 576.245 427.115; 494.245 427.115; 576.245 427.115; 494.245 427.115" keyTimes="0; 0.167; 0.333; 0.5; 0.667; 0.833; 1" keySplines="0.333 0 0.667 1; 0.167 0 0.667 1; 0.333 0 0.667 1; 0.167 0 0.667 1; 0.333 0 0.667 1; 0.167 0 0.667 1" fill="freeze" /><g transform="scale(1,1) translate(-0.245,146.885)"><g id="Group 15"><path fill="#c1c1c1" fill-opacity="1" d="M55.195,-20.147C71.043,-48.866,80.975,-98.877,80.975,-138.12C80.975,-185.374,61.658,-240.815,40.293,-277.669L-40.596,-277.669C-61.961,-240.815,-81.278,-185.374,-81.278,-138.12C-81.278,-98.877,-71.345,-48.866,-55.497,-20.147L55.195,-20.147L55.195,-20.147Z" /></g><g id="Group 14"><path fill="#b62d51" fill-opacity="1" d="M-32.97,-3.296C-38.061,-3.296,-44.291,-4.211,-48.004,-8.794C-50.627,-12.03,-53.128,-15.852,-55.497,-20.147L55.195,-20.147C52.825,-15.852,50.324,-12.03,47.703,-8.794C43.99,-4.211,37.756,-3.296,32.666,-3.296L-32.97,-3.296L-32.97,-3.296Z" /></g><g id="Group 13"><path fill="#b62d51" fill-opacity="1" d="M-40.596,-277.669C-26.31,-302.311,-11.107,-318.647,-0.151,-318.647C10.805,-318.647,26.008,-302.311,40.293,-277.669L-40.596,-277.669L-40.596,-277.669Z" /></g><g id="Group 12"><path fill="#e9a0a0" fill-opacity="1" d="M8.225,-277.669C0.197,-292.578,-8.272,-301.894,-15.3,-301.894C-19.905,-301.894,-25.79,-297.897,-32.258,-290.95C-35.046,-286.869,-37.838,-282.424,-40.596,-277.669L8.225,-277.669L8.225,-277.669Z" /></g><g id="Group 11"><path fill="#ffffff" fill-opacity="1" d="M35.777,-145.972C39.175,-186.784,27.909,-234.668,13.689,-266.5C11.906,-270.49,10.079,-274.228,8.225,-277.669L-40.596,-277.669C-60.386,-243.532,-78.416,-193.447,-80.967,-148.694C-80.734,-148.999,-80.498,-149.311,-80.264,-149.609C-76.956,-153.11,-71.507,-152.167,-72.034,-144.605L-72.033,-144.605C-74.054,-104.943,-65.392,-72.604,-45.84,-37.249L-12.064,-37.249L-0.151,-37.249C20.173,-74.094,32.279,-103.948,35.777,-145.972L35.777,-145.972Z" /></g><g id="Group 10"><path fill="#e9a0a0" fill-opacity="1" d="M-0.151,-120.6C-28.074,-120.6,-50.712,-143.236,-50.712,-171.159C-50.712,-199.083,-28.074,-221.72,-0.151,-221.72C27.773,-221.72,50.408,-199.083,50.408,-171.159C50.408,-143.236,27.773,-120.6,-0.151,-120.6L-0.151,-120.6Z" /></g><g id="Group 9"><path fill="#b62d51" fill-opacity="1" d="M55.195,-20.147L87.258,15.041C93.389,21.769,103.222,20.548,107.964,14.242C135.754,-22.712,108.115,-112.984,80.666,-148.694C80.87,-145.133,80.977,-141.604,80.977,-138.12C80.977,-98.99,71.1,-49.159,55.331,-20.4L55.195,-20.147L55.195,-20.147Z" /></g><g id="Group 8"><path fill="#b62d51" fill-opacity="1" d="M-0.151,-120.6C-21.462,-120.6,-39.694,-133.786,-47.134,-152.443C-38.568,-141.574,-25.283,-134.595,-10.369,-134.595C15.469,-134.595,36.412,-155.54,36.412,-181.376C36.412,-196.291,29.435,-209.573,18.564,-218.139C37.222,-210.7,50.408,-192.471,50.408,-171.159C50.408,-143.236,27.773,-120.6,-0.151,-120.6L-0.151,-120.6Z" /></g><g id="Group 7"><path fill="#e9a0a0" fill-opacity="1" d="M-0.151,-105.051C7.066,-105.051,13.364,-98.397,12.972,-91.577L6.684,17.976C6.484,21.479,3.608,24.877,-0.151,24.877C-3.96,24.877,-6.787,21.437,-6.985,17.976L-13.273,-91.577C-13.687,-98.829,-7.37,-105.051,-0.151,-105.051L-0.151,-105.051Z" /></g><g id="Group 6"><path fill="#b62d51" fill-opacity="1" d="M-0.151,-105.051C7.066,-105.051,13.364,-98.397,12.972,-91.577L6.684,17.976C6.484,21.479,3.608,24.877,-0.151,24.877C-3.46,24.877,-6.027,22.281,-6.774,19.329C-6.049,20.264,-4.909,20.903,-3.648,20.84C-1.607,20.74,-0.151,18.811,-0.151,16.904L-0.151,-91.622C-0.15,-95.339,-3.78,-98.782,-7.7,-98.586C-9.609,-98.49,-11.355,-97.6,-12.594,-96.258C-10.796,-101.315,-5.745,-105.051,-0.151,-105.051L-0.151,-105.051Z" /></g><g id="Group 5"><path fill="#e9a0a0" fill-opacity="1" d="M55.195,-20.147L82.636,9.968C91.755,19.975,100.564,10.866,103.864,1.59C104.366,0.178,104.813,-1.296,105.203,-2.828C114.094,-37.652,95.605,-89.789,79.76,-112.907C77.005,-82.977,69.862,-46.902,55.331,-20.4L55.195,-20.147L55.195,-20.147Z" /></g><g id="Group 4"><path fill="#e9a0a0" fill-opacity="1" d="M-55.497,-20.147L-89.944,17.655C-96.929,25.321,-102.016,22.211,-106.122,17.133C-135.856,-19.618,-108.691,-113.611,-80.264,-149.609C-76.719,-153.361,-70.712,-152.008,-72.242,-142.873C-78.36,-106.301,-70.715,-47.626,-55.497,-20.147L-55.497,-20.147Z" /></g><g id="Group 3"><path fill="#b62d51" fill-opacity="1" d="M-55.497,-20.147L-80.546,7.341C-97.942,26.433,-104.1,8.863,-105.596,-0.378C-113.077,-46.594,-96.491,-89.79,-74.354,-114.711C-74.432,-80.907,-67.208,-41.292,-55.497,-20.147L-55.497,-20.147Z" /></g><g id="Group 2"><path fill="#553c73" fill-opacity="1" d="M-1.197,-272.929C-3.814,-272.929,-5.935,-275.051,-5.935,-277.669C-5.935,-280.286,-3.814,-282.407,-1.197,-282.407L8.224,-282.407C10.841,-282.407,12.964,-280.286,12.964,-277.669C12.964,-275.051,10.841,-272.929,8.224,-272.929L-1.197,-272.929L-1.197,-272.929ZM-32.553,-138.759C-24.261,-130.468,-12.805,-125.339,-0.151,-125.339C12.501,-125.339,23.957,-130.468,32.248,-138.759C40.539,-147.05,45.669,-158.507,45.669,-171.159C45.669,-196.465,25.154,-216.98,-0.151,-216.98C-12.805,-216.98,-24.261,-211.851,-32.553,-203.56C-40.845,-195.269,-45.973,-183.814,-45.973,-171.159C-45.973,-158.507,-40.845,-147.05,-32.553,-138.759L-32.553,-138.759ZM-0.151,-115.86C-15.422,-115.86,-29.248,-122.05,-39.255,-132.057C-49.262,-142.064,-55.451,-155.89,-55.451,-171.159C-55.451,-186.43,-49.262,-200.254,-39.255,-210.261C-29.248,-220.269,-15.422,-226.459,-0.151,-226.459C30.39,-226.459,55.147,-201.702,55.147,-171.159C55.147,-155.89,48.957,-142.064,38.95,-132.057C28.943,-122.05,15.118,-115.86,-0.151,-115.86L-0.151,-115.86ZM85.652,-132.577C85.224,-113.491,82.629,-92.343,78.286,-72.467C74.057,-53.11,68.147,-34.899,60.938,-20.868L90.757,11.857C91.211,12.355,91.661,12.767,92.1,13.098C93.836,14.404,95.86,14.936,97.817,14.81C99.774,14.683,101.663,13.895,103.129,12.558C103.538,12.186,103.894,11.801,104.187,11.409C115.691,-3.887,116.868,-29.643,112.353,-56.592C107.752,-84.053,97.263,-112.466,85.652,-132.577L85.652,-132.577ZM-93.443,14.471L-61.22,-20.891C-68.264,-35.038,-73.557,-55.507,-76.481,-76.928C-79.655,-100.201,-80.066,-124.76,-76.907,-143.651C-76.704,-144.864,-76.672,-145.774,-76.764,-146.423L-77.022,-146.088C-77.15,-145.897,-77.289,-145.714,-77.442,-145.543C-92.389,-125.946,-106.832,-90.014,-112.17,-55.595C-116.491,-27.734,-114.815,-1.144,-102.439,14.153C-101.023,15.904,-99.594,17.29,-98.318,17.508C-97.208,17.697,-95.664,16.908,-93.443,14.471L-93.443,14.471ZM12.368,1.444L11.405,18.234C11.236,21.196,9.908,24.1,7.824,26.205C5.781,28.269,3.009,29.617,-0.151,29.617C-3.33,29.617,-6.088,28.267,-8.122,26.214C-10.217,24.097,-11.538,21.176,-11.706,18.234L-12.669,1.444L-32.97,1.444C-35.887,1.444,-39.172,1.17,-42.356,0.21C-45.843,-0.843,-49.139,-2.689,-51.67,-5.814C-53.086,-7.559,-54.444,-9.425,-55.745,-11.396C-55.805,-11.486,-55.861,-11.58,-55.914,-11.673L-56.291,-12.253L-86.445,20.839C-91.209,26.066,-95.701,27.555,-99.909,26.837C-103.949,26.147,-107.117,23.44,-109.808,20.116C-124.058,2.501,-126.194,-26.774,-121.5,-57.039C-116.018,-92.398,-101.157,-129.497,-85.601,-150.399C-84.248,-171.501,-79.587,-193.655,-72.984,-214.752C-65.471,-238.753,-55.421,-261.46,-44.862,-279.734C-44.761,-279.943,-44.645,-280.144,-44.514,-280.334C-37.072,-293.129,-29.35,-303.77,-22.036,-311.18C-14.355,-318.963,-6.844,-323.388,-0.151,-323.388C6.541,-323.388,14.052,-318.964,21.734,-311.179C29.048,-303.77,36.772,-293.127,44.215,-280.33C44.342,-280.142,44.457,-279.944,44.558,-279.738C56.027,-259.89,66.903,-234.776,74.585,-208.425C80.184,-189.221,84.093,-169.358,85.312,-150.382C100.639,-129.799,115.822,-93.133,121.683,-58.147C126.582,-28.909,125.002,-0.558,111.741,17.075C111.039,18.007,110.289,18.835,109.497,19.555C106.441,22.341,102.497,23.987,98.409,24.251C94.322,24.516,90.084,23.396,86.435,20.651C85.469,19.925,84.572,19.117,83.76,18.225L55.995,-12.244C55.811,-11.959,55.626,-11.675,55.441,-11.394C55.383,-11.307,55.323,-11.224,55.261,-11.142C53.976,-9.21,52.678,-7.429,51.369,-5.814C48.838,-2.689,45.54,-0.843,42.052,0.21C38.869,1.17,35.584,1.444,32.666,1.444L12.368,1.444L12.368,1.444ZM4.133,-20.096L4.132,-20.147C4.132,-20.353,4.145,-20.554,4.171,-20.752L8.25,-91.835L8.249,-92.184C8.249,-94.124,7.327,-96.065,5.87,-97.581C4.377,-99.132,2.377,-100.189,0.267,-100.31L-0.151,-100.312C-0.437,-100.312,-0.589,-100.311,-0.61,-100.31C-2.745,-100.188,-4.745,-99.204,-6.22,-97.704C-7.649,-96.25,-8.552,-94.322,-8.552,-92.253L-8.552,-91.835L-4.472,-20.746C-4.447,-20.55,-4.434,-20.35,-4.434,-20.147L-4.435,-20.101L-3.504,-3.899C-3.479,-3.701,-3.467,-3.5,-3.467,-3.295L-3.467,-3.245L-2.264,17.716C-2.227,18.378,-1.915,19.049,-1.42,19.549C-1.068,19.905,-0.625,20.14,-0.151,20.14C0.317,20.14,0.764,19.903,1.122,19.541C1.614,19.045,1.926,18.379,1.963,17.716L3.165,-3.239L3.165,-3.295C3.165,-3.501,3.178,-3.704,3.203,-3.903L4.133,-20.096L4.133,-20.096ZM46.765,-15.426L29.671,-15.427C27.065,-15.427,24.951,-17.54,24.951,-20.147C24.951,-22.755,27.065,-24.868,29.671,-24.868L52.353,-24.868C59.243,-38.165,64.93,-55.703,69.03,-74.466C73.655,-95.635,76.238,-118.279,76.238,-138.12C76.238,-159.807,72.085,-183.264,65.515,-205.795C58.326,-230.455,48.252,-254.002,37.557,-272.929L23.078,-272.929C20.461,-272.929,18.339,-275.051,18.339,-277.669C18.339,-280.286,20.461,-282.407,23.078,-282.407L31.906,-282.407C26.189,-291.477,20.437,-299.037,14.995,-304.551C9.107,-310.517,3.871,-313.909,-0.151,-313.909C-4.173,-313.909,-9.41,-310.518,-15.297,-304.553C-20.741,-299.038,-26.492,-291.477,-32.21,-282.407C-29.631,-282.362,-27.554,-280.258,-27.554,-277.669C-27.554,-275.051,-29.677,-272.929,-32.294,-272.929L-37.86,-272.929C-47.65,-255.6,-56.929,-234.371,-63.95,-211.937C-69.676,-193.646,-73.891,-174.595,-75.647,-156.269C-74.499,-156.196,-73.378,-155.897,-72.332,-155.357C-70.701,-154.517,-69.331,-153.156,-68.418,-151.24C-67.357,-149.018,-66.927,-145.977,-67.578,-142.096C-70.583,-124.121,-70.17,-100.588,-67.113,-78.186C-64.298,-57.552,-59.27,-38.018,-52.648,-24.868L-44.796,-24.868C-42.189,-24.868,-40.075,-22.755,-40.075,-20.147C-40.075,-17.54,-42.189,-15.427,-44.796,-15.427L-47.057,-15.427C-46.153,-14.113,-45.246,-12.892,-44.34,-11.774C-43.158,-10.316,-41.482,-9.414,-39.652,-8.862C-37.52,-8.219,-35.143,-8.035,-32.97,-8.035L-13.213,-8.035L-13.637,-15.408L-13.909,-15.408C-16.526,-15.408,-18.648,-17.53,-18.648,-20.147C-18.648,-22.674,-16.671,-24.739,-14.18,-24.88L-17.993,-91.317C-18.019,-91.762,-18.031,-92.073,-18.031,-92.253C-18.031,-96.902,-16.067,-101.172,-12.958,-104.332C-9.896,-107.445,-5.683,-109.491,-1.128,-109.751C-0.673,-109.777,-0.346,-109.791,-0.151,-109.791C0.032,-109.791,0.348,-109.777,0.786,-109.752C5.39,-109.488,9.623,-107.314,12.682,-104.136C15.775,-100.922,17.727,-96.632,17.727,-92.184C17.727,-92.025,17.715,-91.737,17.691,-91.317L13.879,-24.887L16.172,-24.887C18.79,-24.887,20.912,-22.764,20.912,-20.147C20.912,-17.53,18.79,-15.408,16.172,-15.408L13.335,-15.408L12.912,-8.035L32.666,-8.035C34.839,-8.035,37.218,-8.219,39.35,-8.862C41.179,-9.414,42.856,-10.316,44.038,-11.774C44.975,-12.93,45.884,-14.15,46.765,-15.426L46.765,-15.426ZM-0.151,-137.1C-18.962,-137.1,-34.21,-152.35,-34.21,-171.159C-34.21,-189.97,-18.962,-205.219,-0.151,-205.219C18.659,-205.219,33.908,-189.97,33.908,-171.159C33.908,-152.35,18.659,-137.1,-0.151,-137.1L-0.151,-137.1Z" /></g><g id="Group 1"><path fill="#ffffff" fill-opacity="1" d="M-8.393,-194.353C-0.135,-194.353,6.561,-187.657,6.561,-179.4C6.561,-171.143,-0.135,-164.446,-8.393,-164.446C-16.65,-164.446,-23.344,-171.143,-23.344,-179.4C-23.344,-187.657,-16.65,-194.353,-8.393,-194.353L-8.393,-194.353Z" /></g></g></g></g><g id="rocket"><g transform="translate(494.245,427.115)"><animateTransform repeatCount="indefinite" type="translate" attributeName="transform" dur="6s" begin="1.6s" calcMode="spline" values="494.245 427.115; 576.245 427.115; 494.245 427.115; 576.245 427.115; 494.245 427.115; 576.245 427.115; 494.245 427.115" keyTimes="0; 0.167; 0.333; 0.5; 0.667; 0.833; 1" keySplines="0.333 0 0.667 1; 0.167 0 0.667 1; 0.333 0 0.667 1; 0.167 0 0.667 1; 0.333 0 0.667 1; 0.167 0 0.667 1" fill="freeze" /><g transform="scale(1,1) translate(-0.245,146.885)"><g transform="matrix(1,0,0,1,-530.791,-537.576)" visibility="hidden" id="line"><animate repeatCount="indefinite" begin="6.767s" calcMode="discrete" fill="freeze" dur="0.833s" values="visible; visible" keyTimes="0; 1" attributeName="visibility" /><use clip-path="url(#cp-1080-1080)" height="1080" width="1080" y="0" x="0" xlink:href="#comp_0" href="#comp_0" /></g></g></g></g><g id="rocket"><g transform="translate(494.245,427.115)"><animateTransform repeatCount="indefinite" type="translate" attributeName="transform" dur="6s" begin="1.6s" calcMode="spline" values="494.245 427.115; 576.245 427.115; 494.245 427.115; 576.245 427.115; 494.245 427.115; 576.245 427.115; 494.245 427.115" keyTimes="0; 0.167; 0.333; 0.5; 0.667; 0.833; 1" keySplines="0.333 0 0.667 1; 0.167 0 0.667 1; 0.333 0 0.667 1; 0.167 0 0.667 1; 0.333 0 0.667 1; 0.167 0 0.667 1" fill="freeze" /><g transform="scale(1,1) translate(-0.245,146.885)"><g transform="matrix(1,0,0,1,-530.791,-537.576)" id="line"><animate repeatCount="indefinite" begin="1.6s" calcMode="discrete" fill="freeze" dur="0.633s" values="visible; hidden" keyTimes="0; 1" attributeName="visibility" /><use clip-path="url(#cp-1080-1080)" height="1080" width="1080" y="0" x="0" xlink:href="#comp_0" href="#comp_0" /></g></g></g></g><g id="rocket"><g transform="translate(494.245,427.115)"><animateTransform repeatCount="indefinite" type="translate" attributeName="transform" dur="6s" begin="1.6s" calcMode="spline" values="494.245 427.115; 576.245 427.115; 494.245 427.115; 576.245 427.115; 494.245 427.115; 576.245 427.115; 494.245 427.115" keyTimes="0; 0.167; 0.333; 0.5; 0.667; 0.833; 1" keySplines="0.333 0 0.667 1; 0.167 0 0.667 1; 0.333 0 0.667 1; 0.167 0 0.667 1; 0.333 0 0.667 1; 0.167 0 0.667 1" fill="freeze" /><g transform="scale(1,1) translate(-0.245,146.885)"><g transform="matrix(1,0,0,1,-530.791,-537.576)" visibility="hidden" id="line"><animate repeatCount="indefinite" begin="2.033s" calcMode="discrete" fill="freeze" dur="1.467s" values="visible; hidden" keyTimes="0; 1" attributeName="visibility" /><use clip-path="url(#cp-1080-1080)" height="1080" width="1080" y="0" x="0" xlink:href="#comp_0" href="#comp_0" /></g></g></g></g><g id="rocket"><g transform="translate(494.245,427.115)"><animateTransform repeatCount="indefinite" type="translate" attributeName="transform" dur="6s" begin="1.6s" calcMode="spline" values="494.245 427.115; 576.245 427.115; 494.245 427.115; 576.245 427.115; 494.245 427.115; 576.245 427.115; 494.245 427.115" keyTimes="0; 0.167; 0.333; 0.5; 0.667; 0.833; 1" keySplines="0.333 0 0.667 1; 0.167 0 0.667 1; 0.333 0 0.667 1; 0.167 0 0.667 1; 0.333 0 0.667 1; 0.167 0 0.667 1" fill="freeze" /><g transform="scale(1,1) translate(-0.245,146.885)"><g transform="matrix(1,0,0,1,-530.791,-537.576)" visibility="hidden" id="line"><animate repeatCount="indefinite" begin="3.133s" calcMode="discrete" fill="freeze" dur="1.467s" values="visible; hidden" keyTimes="0; 1" attributeName="visibility" /><use clip-path="url(#cp-1080-1080)" height="1080" width="1080" y="0" x="0" xlink:href="#comp_0" href="#comp_0" /></g></g></g></g><g id="rocket"><g transform="translate(494.245,427.115)"><animateTransform repeatCount="indefinite" type="translate" attributeName="transform" dur="6s" begin="1.6s" calcMode="spline" values="494.245 427.115; 576.245 427.115; 494.245 427.115; 576.245 427.115; 494.245 427.115; 576.245 427.115; 494.245 427.115" keyTimes="0; 0.167; 0.333; 0.5; 0.667; 0.833; 1" keySplines="0.333 0 0.667 1; 0.167 0 0.667 1; 0.333 0 0.667 1; 0.167 0 0.667 1; 0.333 0 0.667 1; 0.167 0 0.667 1" fill="freeze" /><g transform="scale(1,1) translate(-0.245,146.885)"><g transform="matrix(1,0,0,1,-530.791,-537.576)" visibility="hidden" id="line"><animate repeatCount="indefinite" begin="4.3s" calcMode="discrete" fill="freeze" dur="1.467s" values="visible; hidden" keyTimes="0; 1" attributeName="visibility" /><use clip-path="url(#cp-1080-1080)" height="1080" width="1080" y="0" x="0" xlink:href="#comp_0" href="#comp_0" /></g></g></g></g><g id="rocket"><g transform="translate(494.245,427.115)"><animateTransform repeatCount="indefinite" type="translate" attributeName="transform" dur="6s" begin="1.6s" calcMode="spline" values="494.245 427.115; 576.245 427.115; 494.245 427.115; 576.245 427.115; 494.245 427.115; 576.245 427.115; 494.245 427.115" keyTimes="0; 0.167; 0.333; 0.5; 0.667; 0.833; 1" keySplines="0.333 0 0.667 1; 0.167 0 0.667 1; 0.333 0 0.667 1; 0.167 0 0.667 1; 0.333 0 0.667 1; 0.167 0 0.667 1" fill="freeze" /><g transform="scale(1,1) translate(-0.245,146.885)"><g transform="matrix(1,0,0,1,-530.791,-537.576)" visibility="hidden" id="line"><animate repeatCount="indefinite" begin="5.5s" calcMode="discrete" fill="freeze" dur="1.467s" values="visible; hidden" keyTimes="0; 1" attributeName="visibility" /><use clip-path="url(#cp-1080-1080)" height="1080" width="1080" y="0" x="0" xlink:href="#comp_0" href="#comp_0" /></g></g></g></g></svg>